<svg version="1.1" xmlns="http://www.w3.org/2000/svg" viewBox="0 0 1112.8 462.75" width="1112.8" height="462.75"><!-- svg-source:excalidraw --><metadata></metadata><defs><style class="style-fonts">
      </style></defs><rect x="0" y="0" width="1112.8" height="462.75" fill="#ffffff"></rect><g transform="translate(10 10) rotate(0 288.59999999999997 16.25)"><text x="0" y="23.2705078125" font-family="Helvetica, Segoe UI Emoji" font-size="26px" fill="#0f172a" text-anchor="start" style="white-space: pre;" direction="ltr" dominant-baseline="alphabetic">What it reads before it writes a word</text></g><g transform="translate(10 50) rotate(0 445.5 9.375)"><text x="0" y="13.42529296875" font-family="Helvetica, Segoe UI Emoji" font-size="15px" fill="#475569" text-anchor="start" style="white-space: pre;" direction="ltr" dominant-baseline="alphabetic">Your material, resolved most-specific-first — and a fall-back that names the file it could not find</text></g><g transform="translate(30 110) rotate(0 42.900000000000006 8.125)"><text x="0" y="11.63525390625" font-family="Helvetica, Segoe UI Emoji" font-size="13px" fill="#475569" text-anchor="start" style="white-space: pre;" direction="ltr" dominant-baseline="alphabetic">YOUR CORPUS</text></g><g stroke-linecap="round" transform="translate(30 146) rotate(0 70 24)"><path d="M12 0 C37.52 0, 63.04 0, 128 0 C136 0, 140 4, 140 12 C140 19.81, 140 27.62, 140 36 C140 44, 136 48, 128 48 C89.09 48, 50.18 48, 12 48 C4 48, 0 44, 0 36 C0 30.16, 0 24.32, 0 12 C0 4, 4 0, 12 0" stroke="none" stroke-width="0" fill="#f8fafc"></path><path d="M12 0 C35.2 0, 58.4 0, 128 0 M12 0 C43.55 0, 75.1 0, 128 0 M128 0 C136 0, 140 4, 140 12 M128 0 C136 0, 140 4, 140 12 M140 12 C140 17.22, 140 22.44, 140 36 M140 12 C140 21.35, 140 30.7, 140 36 M140 36 C140 44, 136 48, 128 48 M140 36 C140 44, 136 48, 128 48 M128 48 C102.98 48, 77.96 48, 12 48 M128 48 C102.96 48, 77.93 48, 12 48 M12 48 C4 48, 0 44, 0 36 M12 48 C4 48, 0 44, 0 36 M0 36 C0 29.12, 0 22.23, 0 12 M0 36 C0 29.37, 0 22.73, 0 12 M0 12 C0 4, 4 0, 12 0 M0 12 C0 4, 4 0, 12 0" stroke="#475569" stroke-width="2" fill="none"></path></g><g transform="translate(35 160.625) rotate(0 65 9.375)"><text x="65" y="13.42529296875" font-family="Helvetica, Segoe UI Emoji" font-size="15px" fill="#1e293b" text-anchor="middle" style="white-space: pre;" direction="ltr" dominant-baseline="alphabetic">Company</text></g><g transform="translate(186 160) rotate(0 109.19999999999999 8.125)"><text x="0" y="11.63525390625" font-family="Helvetica, Segoe UI Emoji" font-size="13px" fill="#475569" text-anchor="start" style="white-space: pre;" direction="ltr" dominant-baseline="alphabetic">positioning · ICP · personas</text></g><g stroke-linecap="round" transform="translate(30 208) rotate(0 70 24)"><path d="M12 0 C37.52 0, 63.04 0, 128 0 C136 0, 140 4, 140 12 C140 19.81, 140 27.62, 140 36 C140 44, 136 48, 128 48 C89.09 48, 50.18 48, 12 48 C4 48, 0 44, 0 36 C0 30.16, 0 24.32, 0 12 C0 4, 4 0, 12 0" stroke="none" stroke-width="0" fill="#f8fafc"></path><path d="M12 0 C35.2 0, 58.4 0, 128 0 M12 0 C43.55 0, 75.1 0, 128 0 M128 0 C136 0, 140 4, 140 12 M128 0 C136 0, 140 4, 140 12 M140 12 C140 17.22, 140 22.44, 140 36 M140 12 C140 21.35, 140 30.7, 140 36 M140 36 C140 44, 136 48, 128 48 M140 36 C140 44, 136 48, 128 48 M128 48 C102.98 48, 77.96 48, 12 48 M128 48 C102.96 48, 77.93 48, 12 48 M12 48 C4 48, 0 44, 0 36 M12 48 C4 48, 0 44, 0 36 M0 36 C0 29.12, 0 22.23, 0 12 M0 36 C0 29.37, 0 22.73, 0 12 M0 12 C0 4, 4 0, 12 0 M0 12 C0 4, 4 0, 12 0" stroke="#475569" stroke-width="2" fill="none"></path></g><g transform="translate(35 222.625) rotate(0 65 9.375)"><text x="65" y="13.42529296875" font-family="Helvetica, Segoe UI Emoji" font-size="15px" fill="#1e293b" text-anchor="middle" style="white-space: pre;" direction="ltr" dominant-baseline="alphabetic">Product</text></g><g transform="translate(186 222) rotate(0 132.6 8.125)"><text x="0" y="11.63525390625" font-family="Helvetica, Segoe UI Emoji" font-size="13px" fill="#475569" text-anchor="start" style="white-space: pre;" direction="ltr" dominant-baseline="alphabetic">reference architectures · patterns</text></g><g stroke-linecap="round" transform="translate(30 270) rotate(0 70 24)"><path d="M12 0 C37.52 0, 63.04 0, 128 0 C136 0, 140 4, 140 12 C140 19.81, 140 27.62, 140 36 C140 44, 136 48, 128 48 C89.09 48, 50.18 48, 12 48 C4 48, 0 44, 0 36 C0 30.16, 0 24.32, 0 12 C0 4, 4 0, 12 0" stroke="none" stroke-width="0" fill="#f8fafc"></path><path d="M12 0 C35.2 0, 58.4 0, 128 0 M12 0 C43.55 0, 75.1 0, 128 0 M128 0 C136 0, 140 4, 140 12 M128 0 C136 0, 140 4, 140 12 M140 12 C140 17.22, 140 22.44, 140 36 M140 12 C140 21.35, 140 30.7, 140 36 M140 36 C140 44, 136 48, 128 48 M140 36 C140 44, 136 48, 128 48 M128 48 C102.98 48, 77.96 48, 12 48 M128 48 C102.96 48, 77.93 48, 12 48 M12 48 C4 48, 0 44, 0 36 M12 48 C4 48, 0 44, 0 36 M0 36 C0 29.12, 0 22.23, 0 12 M0 36 C0 29.37, 0 22.73, 0 12 M0 12 C0 4, 4 0, 12 0 M0 12 C0 4, 4 0, 12 0" stroke="#475569" stroke-width="2" fill="none"></path></g><g transform="translate(35 284.625) rotate(0 65 9.375)"><text x="65" y="13.42529296875" font-family="Helvetica, Segoe UI Emoji" font-size="15px" fill="#1e293b" text-anchor="middle" style="white-space: pre;" direction="ltr" dominant-baseline="alphabetic">Messaging</text></g><g transform="translate(186 284) rotate(0 132.6 8.125)"><text x="0" y="11.63525390625" font-family="Helvetica, Segoe UI Emoji" font-size="13px" fill="#475569" text-anchor="start" style="white-space: pre;" direction="ltr" dominant-baseline="alphabetic">voice · hooks · premise vocabulary</text></g><g stroke-linecap="round" transform="translate(30 332) rotate(0 70 24)"><path d="M12 0 C37.52 0, 63.04 0, 128 0 C136 0, 140 4, 140 12 C140 19.81, 140 27.62, 140 36 C140 44, 136 48, 128 48 C89.09 48, 50.18 48, 12 48 C4 48, 0 44, 0 36 C0 30.16, 0 24.32, 0 12 C0 4, 4 0, 12 0" stroke="none" stroke-width="0" fill="#f8fafc"></path><path d="M12 0 C35.2 0, 58.4 0, 128 0 M12 0 C43.55 0, 75.1 0, 128 0 M128 0 C136 0, 140 4, 140 12 M128 0 C136 0, 140 4, 140 12 M140 12 C140 17.22, 140 22.44, 140 36 M140 12 C140 21.35, 140 30.7, 140 36 M140 36 C140 44, 136 48, 128 48 M140 36 C140 44, 136 48, 128 48 M128 48 C102.98 48, 77.96 48, 12 48 M128 48 C102.96 48, 77.93 48, 12 48 M12 48 C4 48, 0 44, 0 36 M12 48 C4 48, 0 44, 0 36 M0 36 C0 29.12, 0 22.23, 0 12 M0 36 C0 29.37, 0 22.73, 0 12 M0 12 C0 4, 4 0, 12 0 M0 12 C0 4, 4 0, 12 0" stroke="#475569" stroke-width="2" fill="none"></path></g><g transform="translate(35 346.625) rotate(0 65 9.375)"><text x="65" y="13.42529296875" font-family="Helvetica, Segoe UI Emoji" font-size="15px" fill="#1e293b" text-anchor="middle" style="white-space: pre;" direction="ltr" dominant-baseline="alphabetic">Proof</text></g><g transform="translate(186 346) rotate(0 120.89999999999998 8.125)"><text x="0" y="11.63525390625" font-family="Helvetica, Segoe UI Emoji" font-size="13px" fill="#475569" text-anchor="start" style="white-space: pre;" direction="ltr" dominant-baseline="alphabetic">case studies · security answers</text></g><g stroke-linecap="round" transform="translate(30 394) rotate(0 70 24)"><path d="M12 0 C37.52 0, 63.04 0, 128 0 C136 0, 140 4, 140 12 C140 19.81, 140 27.62, 140 36 C140 44, 136 48, 128 48 C89.09 48, 50.18 48, 12 48 C4 48, 0 44, 0 36 C0 30.16, 0 24.32, 0 12 C0 4, 4 0, 12 0" stroke="none" stroke-width="0" fill="#f8fafc"></path><path d="M12 0 C35.2 0, 58.4 0, 128 0 M12 0 C43.55 0, 75.1 0, 128 0 M128 0 C136 0, 140 4, 140 12 M128 0 C136 0, 140 4, 140 12 M140 12 C140 17.22, 140 22.44, 140 36 M140 12 C140 21.35, 140 30.7, 140 36 M140 36 C140 44, 136 48, 128 48 M140 36 C140 44, 136 48, 128 48 M128 48 C102.98 48, 77.96 48, 12 48 M128 48 C102.96 48, 77.93 48, 12 48 M12 48 C4 48, 0 44, 0 36 M12 48 C4 48, 0 44, 0 36 M0 36 C0 29.12, 0 22.23, 0 12 M0 36 C0 29.37, 0 22.73, 0 12 M0 12 C0 4, 4 0, 12 0 M0 12 C0 4, 4 0, 12 0" stroke="#475569" stroke-width="2" fill="none"></path></g><g transform="translate(35 408.625) rotate(0 65 9.375)"><text x="65" y="13.42529296875" font-family="Helvetica, Segoe UI Emoji" font-size="15px" fill="#1e293b" text-anchor="middle" style="white-space: pre;" direction="ltr" dominant-baseline="alphabetic">Brand</text></g><g transform="translate(186 408) rotate(0 120.89999999999998 8.125)"><text x="0" y="11.63525390625" font-family="Helvetica, Segoe UI Emoji" font-size="13px" fill="#475569" text-anchor="start" style="white-space: pre;" direction="ltr" dominant-baseline="alphabetic">palette · glossary · disclosure</text></g><g stroke-linecap="round" transform="translate(502 134) rotate(0 116 150)"><path d="M32 0 C65.6 0, 99.2 0, 200 0 M200 0 C221.33 0, 232 10.67, 232 32 M232 32 C232 84.24, 232 136.48, 232 268 M232 268 C232 289.33, 221.33 300, 200 300 M200 300 C163.46 300, 126.92 300, 32 300 M32 300 C10.67 300, 0 289.33, 0 268 M0 268 C0 204.66, 0 141.32, 0 32 M0 32 C0 10.67, 10.67 0, 32 0" stroke="#cbd5e1" stroke-width="1.5" fill="none" stroke-dasharray="8 9"></path></g><g transform="translate(518 148) rotate(0 85.80000000000001 8.125)"><text x="0" y="11.63525390625" font-family="Helvetica, Segoe UI Emoji" font-size="13px" fill="#475569" text-anchor="start" style="white-space: pre;" direction="ltr" dominant-baseline="alphabetic">RESOLVED IN THIS ORDER</text></g><g stroke-linecap="round" transform="translate(518 178) rotate(0 100 27)"><path d="M13.5 0 C51.56 0, 89.61 0, 186.5 0 C195.5 0, 200 4.5, 200 13.5 C200 22.28, 200 31.07, 200 40.5 C200 49.5, 195.5 54, 186.5 54 C128.47 54, 70.44 54, 13.5 54 C4.5 54, 0 49.5, 0 40.5 C0 33.93, 0 27.37, 0 13.5 C0 4.5, 4.5 0, 13.5 0" stroke="none" stroke-width="0" fill="#f8fafc"></path><path d="M13.5 0 C48.1 0, 82.7 0, 186.5 0 M13.5 0 C60.55 0, 107.61 0, 186.5 0 M186.5 0 C195.5 0, 200 4.5, 200 13.5 M186.5 0 C195.5 0, 200 4.5, 200 13.5 M200 13.5 C200 19.37, 200 25.25, 200 40.5 M200 13.5 C200 24.02, 200 34.53, 200 40.5 M200 40.5 C200 49.5, 195.5 54, 186.5 54 M200 40.5 C200 49.5, 195.5 54, 186.5 54 M186.5 54 C149.19 54, 111.88 54, 13.5 54 M186.5 54 C149.16 54, 111.83 54, 13.5 54 M13.5 54 C4.5 54, 0 49.5, 0 40.5 M13.5 54 C4.5 54, 0 49.5, 0 40.5 M0 40.5 C0 32.76, 0 25.01, 0 13.5 M0 40.5 C0 33.04, 0 25.57, 0 13.5 M0 13.5 C0 4.5, 4.5 0, 13.5 0 M0 13.5 C0 4.5, 4.5 0, 13.5 0" stroke="#475569" stroke-width="2" fill="none"></path></g><g transform="translate(523 196.25) rotate(0 95 8.75)"><text x="95" y="12.5302734375" font-family="Helvetica, Segoe UI Emoji" font-size="14px" fill="#1e293b" text-anchor="middle" style="white-space: pre;" direction="ltr" dominant-baseline="alphabetic">Experiment overlay</text></g><g stroke-linecap="round" transform="translate(518 252) rotate(0 100 27)"><path d="M13.5 0 C51.56 0, 89.61 0, 186.5 0 C195.5 0, 200 4.5, 200 13.5 C200 22.28, 200 31.07, 200 40.5 C200 49.5, 195.5 54, 186.5 54 C128.47 54, 70.44 54, 13.5 54 C4.5 54, 0 49.5, 0 40.5 C0 33.93, 0 27.37, 0 13.5 C0 4.5, 4.5 0, 13.5 0" stroke="none" stroke-width="0" fill="#f8fafc"></path><path d="M13.5 0 C48.1 0, 82.7 0, 186.5 0 M13.5 0 C60.55 0, 107.61 0, 186.5 0 M186.5 0 C195.5 0, 200 4.5, 200 13.5 M186.5 0 C195.5 0, 200 4.5, 200 13.5 M200 13.5 C200 19.37, 200 25.25, 200 40.5 M200 13.5 C200 24.02, 200 34.53, 200 40.5 M200 40.5 C200 49.5, 195.5 54, 186.5 54 M200 40.5 C200 49.5, 195.5 54, 186.5 54 M186.5 54 C149.19 54, 111.88 54, 13.5 54 M186.5 54 C149.16 54, 111.83 54, 13.5 54 M13.5 54 C4.5 54, 0 49.5, 0 40.5 M13.5 54 C4.5 54, 0 49.5, 0 40.5 M0 40.5 C0 32.76, 0 25.01, 0 13.5 M0 40.5 C0 33.04, 0 25.57, 0 13.5 M0 13.5 C0 4.5, 4.5 0, 13.5 0 M0 13.5 C0 4.5, 4.5 0, 13.5 0" stroke="#475569" stroke-width="2" fill="none"></path></g><g transform="translate(523 270.25) rotate(0 95 8.75)"><text x="95" y="12.5302734375" font-family="Helvetica, Segoe UI Emoji" font-size="14px" fill="#1e293b" text-anchor="middle" style="white-space: pre;" direction="ltr" dominant-baseline="alphabetic">Product pack</text></g><g stroke-linecap="round" transform="translate(518 326) rotate(0 100 27)"><path d="M13.5 0 C51.56 0, 89.61 0, 186.5 0 C195.5 0, 200 4.5, 200 13.5 C200 22.28, 200 31.07, 200 40.5 C200 49.5, 195.5 54, 186.5 54 C128.47 54, 70.44 54, 13.5 54 C4.5 54, 0 49.5, 0 40.5 C0 33.93, 0 27.37, 0 13.5 C0 4.5, 4.5 0, 13.5 0" stroke="none" stroke-width="0" fill="#f8fafc"></path><path d="M13.5 0 C48.1 0, 82.7 0, 186.5 0 M13.5 0 C60.55 0, 107.61 0, 186.5 0 M186.5 0 C195.5 0, 200 4.5, 200 13.5 M186.5 0 C195.5 0, 200 4.5, 200 13.5 M200 13.5 C200 19.37, 200 25.25, 200 40.5 M200 13.5 C200 24.02, 200 34.53, 200 40.5 M200 40.5 C200 49.5, 195.5 54, 186.5 54 M200 40.5 C200 49.5, 195.5 54, 186.5 54 M186.5 54 C149.19 54, 111.88 54, 13.5 54 M186.5 54 C149.16 54, 111.83 54, 13.5 54 M13.5 54 C4.5 54, 0 49.5, 0 40.5 M13.5 54 C4.5 54, 0 49.5, 0 40.5 M0 40.5 C0 32.76, 0 25.01, 0 13.5 M0 40.5 C0 33.04, 0 25.57, 0 13.5 M0 13.5 C0 4.5, 4.5 0, 13.5 0 M0 13.5 C0 4.5, 4.5 0, 13.5 0" stroke="#475569" stroke-width="2" fill="none"></path></g><g transform="translate(523 344.25) rotate(0 95 8.75)"><text x="95" y="12.5302734375" font-family="Helvetica, Segoe UI Emoji" font-size="14px" fill="#1e293b" text-anchor="middle" style="white-space: pre;" direction="ltr" dominant-baseline="alphabetic">Company profile</text></g><g transform="translate(518 394) rotate(0 62.39999999999998 8.125)"><text x="0" y="11.63525390625" font-family="Helvetica, Segoe UI Emoji" font-size="13px" fill="#475569" text-anchor="start" style="white-space: pre;" direction="ltr" dominant-baseline="alphabetic">first match wins</text></g><g stroke-linecap="round"><g transform="translate(450 170) rotate(0 26 57)"><path d="M0 0 C5 0, 25 -19, 30 0 C35 19, 26.33 95, 30 114 C33.67 133, 48.33 114, 52 114 M0 0 C5 0, 25 -19, 30 0 C35 19, 26.33 95, 30 114 C33.67 133, 48.33 114, 52 114" stroke="#94a3b8" stroke-width="2" fill="none"></path></g><g transform="translate(450 170) rotate(0 26 57)"><path d="M45.28 122.71 C46.62 120.96, 47.97 119.22, 52 114 M45.28 122.71 C47.11 120.34, 48.93 117.97, 52 114" stroke="#94a3b8" stroke-width="2" fill="none"></path></g><g transform="translate(450 170) rotate(0 26 57)"><path d="M41.25 116.35 C43.4 115.88, 45.55 115.41, 52 114 M41.25 116.35 C44.18 115.71, 47.1 115.07, 52 114" stroke="#94a3b8" stroke-width="2" fill="none"></path></g></g><mask></mask><g stroke-linecap="round"><g transform="translate(450 232) rotate(0 26 26)"><path d="M0 0 C5 0, 25 -8.67, 30 0 C35 8.67, 26.33 43.33, 30 52 C33.67 60.67, 48.33 52, 52 52 M0 0 C5 0, 25 -8.67, 30 0 C35 8.67, 26.33 43.33, 30 52 C33.67 60.67, 48.33 52, 52 52" stroke="#94a3b8" stroke-width="2" fill="none"></path></g><g transform="translate(450 232) rotate(0 26 26)"><path d="M43.11 58.48 C44.89 57.18, 46.67 55.89, 52 52 M43.11 58.48 C45.53 56.72, 47.95 54.96, 52 52" stroke="#94a3b8" stroke-width="2" fill="none"></path></g><g transform="translate(450 232) rotate(0 26 26)"><path d="M41.03 51.25 C43.22 51.4, 45.42 51.55, 52 52 M41.03 51.25 C44.01 51.45, 47 51.66, 52 52" stroke="#94a3b8" stroke-width="2" fill="none"></path></g></g><mask></mask><g stroke-linecap="round"><g transform="translate(450 294) rotate(0 26 -5)"><path d="M0 0 C5 0, 25 1.67, 30 0 C35 -1.67, 26.33 -8.33, 30 -10 C33.67 -11.67, 48.33 -10, 52 -10 M0 0 C5 0, 25 1.67, 30 0 C35 -1.67, 26.33 -8.33, 30 -10 C33.67 -11.67, 48.33 -10, 52 -10" stroke="#94a3b8" stroke-width="2" fill="none"></path></g><g transform="translate(450 294) rotate(0 26 -5)"><path d="M41.47 -6.82 C43.58 -7.45, 45.68 -8.09, 52 -10 M41.47 -6.82 C44.33 -7.68, 47.2 -8.55, 52 -10" stroke="#94a3b8" stroke-width="2" fill="none"></path></g><g transform="translate(450 294) rotate(0 26 -5)"><path d="M41.89 -14.33 C43.91 -13.46, 45.93 -12.6, 52 -10 M41.89 -14.33 C44.64 -13.15, 47.39 -11.97, 52 -10" stroke="#94a3b8" stroke-width="2" fill="none"></path></g></g><mask></mask><g stroke-linecap="round"><g transform="translate(450 356) rotate(0 26 -36)"><path d="M0 0 C5 0, 25 12, 30 0 C35 -12, 26.33 -60, 30 -72 C33.67 -84, 48.33 -72, 52 -72 M0 0 C5 0, 25 12, 30 0 C35 -12, 26.33 -60, 30 -72 C33.67 -84, 48.33 -72, 52 -72" stroke="#94a3b8" stroke-width="2" fill="none"></path></g><g transform="translate(450 356) rotate(0 26 -36)"><path d="M41.01 -72.34 C43.2 -72.27, 45.4 -72.21, 52 -72 M41.01 -72.34 C44 -72.25, 46.99 -72.16, 52 -72" stroke="#94a3b8" stroke-width="2" fill="none"></path></g><g transform="translate(450 356) rotate(0 26 -36)"><path d="M43.8 -79.33 C45.44 -77.86, 47.08 -76.4, 52 -72 M43.8 -79.33 C46.03 -77.34, 48.26 -75.34, 52 -72" stroke="#94a3b8" stroke-width="2" fill="none"></path></g></g><mask></mask><g stroke-linecap="round"><g transform="translate(450 418) rotate(0 26 -67)"><path d="M0 0 C5 0, 25 22.33, 30 0 C35 -22.33, 26.33 -111.67, 30 -134 C33.67 -156.33, 48.33 -134, 52 -134 M0 0 C5 0, 25 22.33, 30 0 C35 -22.33, 26.33 -111.67, 30 -134 C33.67 -156.33, 48.33 -134, 52 -134" stroke="#94a3b8" stroke-width="2" fill="none"></path></g><g transform="translate(450 418) rotate(0 26 -67)"><path d="M41.46 -137.15 C43.57 -136.52, 45.68 -135.89, 52 -134 M41.46 -137.15 C44.33 -136.29, 47.19 -135.44, 52 -134" stroke="#94a3b8" stroke-width="2" fill="none"></path></g><g transform="translate(450 418) rotate(0 26 -67)"><path d="M45.95 -143.19 C47.16 -141.35, 48.37 -139.51, 52 -134 M45.95 -143.19 C47.6 -140.69, 49.24 -138.19, 52 -134" stroke="#94a3b8" stroke-width="2" fill="none"></path></g></g><mask></mask><g stroke-linecap="round" transform="translate(822 186) rotate(0 106 29)"><path d="M14.5 0 C54.76 0, 95.01 0, 197.5 0 C207.17 0, 212 4.83, 212 14.5 C212 23.94, 212 33.37, 212 43.5 C212 53.17, 207.17 58, 197.5 58 C136.12 58, 74.74 58, 14.5 58 C4.83 58, 0 53.17, 0 43.5 C0 36.45, 0 29.39, 0 14.5 C0 4.83, 4.83 0, 14.5 0" stroke="none" stroke-width="0" fill="#e2e8f0"></path><path d="M14.5 0 C51.1 0, 87.7 0, 197.5 0 M14.5 0 C64.27 0, 114.05 0, 197.5 0 M197.5 0 C207.17 0, 212 4.83, 212 14.5 M197.5 0 C207.17 0, 212 4.83, 212 14.5 M212 14.5 C212 20.81, 212 27.12, 212 43.5 M212 14.5 C212 25.8, 212 37.09, 212 43.5 M212 43.5 C212 53.17, 207.17 58, 197.5 58 M212 43.5 C212 53.17, 207.17 58, 197.5 58 M197.5 58 C158.03 58, 118.56 58, 14.5 58 M197.5 58 C158 58, 118.51 58, 14.5 58 M14.5 58 C4.83 58, 0 53.17, 0 43.5 M14.5 58 C4.83 58, 0 53.17, 0 43.5 M0 43.5 C0 35.18, 0 26.87, 0 14.5 M0 43.5 C0 35.48, 0 27.47, 0 14.5 M0 14.5 C0 4.83, 4.83 0, 14.5 0 M0 14.5 C0 4.83, 4.83 0, 14.5 0" stroke="#0f172a" stroke-width="2" fill="none"></path></g><g transform="translate(827 205.625) rotate(0 101 9.375)"><text x="101" y="13.42529296875" font-family="Helvetica, Segoe UI Emoji" font-size="15px" fill="#1e293b" text-anchor="middle" style="white-space: pre;" direction="ltr" dominant-baseline="alphabetic">Mode A — product-led</text></g><g stroke-linecap="round" transform="translate(822 336) rotate(0 88 29)"><path d="M14.5 0 C46.84 0, 79.18 0, 161.5 0 C171.17 0, 176 4.83, 176 14.5 C176 23.94, 176 33.37, 176 43.5 C176 53.17, 171.17 58, 161.5 58 C112.19 58, 62.89 58, 14.5 58 C4.83 58, 0 53.17, 0 43.5 C0 36.45, 0 29.39, 0 14.5 C0 4.83, 4.83 0, 14.5 0" stroke="none" stroke-width="0" fill="#f8fafc"></path><path d="M14.5 0 C43.9 0, 73.3 0, 161.5 0 M14.5 0 C54.48 0, 94.47 0, 161.5 0 M161.5 0 C171.17 0, 176 4.83, 176 14.5 M161.5 0 C171.17 0, 176 4.83, 176 14.5 M176 14.5 C176 20.81, 176 27.12, 176 43.5 M176 14.5 C176 25.8, 176 37.09, 176 43.5 M176 43.5 C176 53.17, 171.17 58, 161.5 58 M176 43.5 C176 53.17, 171.17 58, 161.5 58 M161.5 58 C129.8 58, 98.09 58, 14.5 58 M161.5 58 C129.77 58, 98.05 58, 14.5 58 M14.5 58 C4.83 58, 0 53.17, 0 43.5 M14.5 58 C4.83 58, 0 53.17, 0 43.5 M0 43.5 C0 35.18, 0 26.87, 0 14.5 M0 43.5 C0 35.48, 0 27.47, 0 14.5 M0 14.5 C0 4.83, 4.83 0, 14.5 0 M0 14.5 C0 4.83, 4.83 0, 14.5 0" stroke="#475569" stroke-width="2" fill="none"></path></g><g transform="translate(827 355.625) rotate(0 83 9.375)"><text x="83" y="13.42529296875" font-family="Helvetica, Segoe UI Emoji" font-size="15px" fill="#1e293b" text-anchor="middle" style="white-space: pre;" direction="ltr" dominant-baseline="alphabetic">Mode B — bespoke</text></g><g stroke-linecap="round"><g transform="translate(734 284) rotate(0 44 -34.5)"><path d="M0 0 C7.33 0, 36.67 11.5, 44 0 C51.33 -11.5, 36.67 -57.5, 44 -69 C51.33 -80.5, 80.67 -69, 88 -69 M0 0 C7.33 0, 36.67 11.5, 44 0 C51.33 -11.5, 36.67 -57.5, 44 -69 C51.33 -80.5, 80.67 -69, 88 -69" stroke="#94a3b8" stroke-width="2" fill="none"></path></g><g transform="translate(734 284) rotate(0 44 -34.5)"><path d="M66.28 -65.5 C70.62 -66.2, 74.97 -66.9, 88 -69 M66.28 -65.5 C72.19 -66.45, 78.1 -67.4, 88 -69" stroke="#94a3b8" stroke-width="2" fill="none"></path></g><g transform="translate(734 284) rotate(0 44 -34.5)"><path d="M69.11 -80.28 C72.89 -78.02, 76.67 -75.77, 88 -69 M69.11 -80.28 C74.25 -77.21, 79.39 -74.14, 88 -69" stroke="#94a3b8" stroke-width="2" fill="none"></path></g></g><mask></mask><g stroke-linecap="round"><g transform="translate(734 284) rotate(0 44 40.5)"><path d="M0 0 C7.33 0, 36.67 -13.5, 44 0 C51.33 13.5, 36.67 67.5, 44 81 C51.33 94.5, 80.67 81, 88 81 M0 0 C7.33 0, 36.67 -13.5, 44 0 C51.33 13.5, 36.67 67.5, 44 81 C51.33 94.5, 80.67 81, 88 81" stroke="#94a3b8" stroke-width="2" fill="none"></path></g><g transform="translate(734 284) rotate(0 44 40.5)"><path d="M69.48 92.87 C73.18 90.5, 76.89 88.12, 88 81 M69.48 92.87 C74.52 89.64, 79.55 86.42, 88 81" stroke="#94a3b8" stroke-width="2" fill="none"></path></g><g transform="translate(734 284) rotate(0 44 40.5)"><path d="M66.18 78.19 C70.54 78.75, 74.91 79.32, 88 81 M66.18 78.19 C72.11 78.96, 78.05 79.72, 88 81" stroke="#94a3b8" stroke-width="2" fill="none"></path></g></g><mask></mask><g transform="translate(740 220) rotate(0 39.60000000000002 7.5)"><text x="0" y="10.740234375" font-family="Helvetica, Segoe UI Emoji" font-size="12px" fill="#475569" text-anchor="start" style="white-space: pre;" direction="ltr" dominant-baseline="alphabetic">all resolve</text></g><g transform="translate(740 318) rotate(0 39.60000000000002 7.5)"><text x="0" y="10.740234375" font-family="Helvetica, Segoe UI Emoji" font-size="12px" fill="#475569" text-anchor="start" style="white-space: pre;" direction="ltr" dominant-baseline="alphabetic">one missing</text></g><g transform="translate(822 404) rotate(0 140.39999999999998 24.375)"><text x="0" y="11.63525390625" font-family="Helvetica, Segoe UI Emoji" font-size="13px" fill="#475569" text-anchor="start" style="white-space: pre;" direction="ltr" dominant-baseline="alphabetic">and it names the file or capability</text><text x="0" y="27.88525390625" font-family="Helvetica, Segoe UI Emoji" font-size="13px" fill="#475569" text-anchor="start" style="white-space: pre;" direction="ltr" dominant-baseline="alphabetic">that caused the fall-back. A quiet</text><text x="0" y="44.13525390625" font-family="Helvetica, Segoe UI Emoji" font-size="13px" fill="#475569" text-anchor="start" style="white-space: pre;" direction="ltr" dominant-baseline="alphabetic">fall-back is not one of the options.</text></g></svg>